<?xml version="1.0" standalone="no"?>
<!DOCTYPE svg PUBLIC "-//W3C//DTD SVG 20010904//EN"
 "http://www.w3.org/TR/2001/REC-SVG-20010904/DTD/svg10.dtd">
<svg version="1.0" xmlns="http://www.w3.org/2000/svg"
 width="225.000000pt" height="225.000000pt" viewBox="0 0 225.000000 225.000000"
 preserveAspectRatio="xMidYMid meet">
<metadata>
Created by potrace 1.14, written by Peter Selinger 2001-2017
</metadata>
<g transform="translate(0.000000,225.000000) scale(0.100000,-0.100000)"
fill="#000000" stroke="none">
<path d="M1082 2215 c-26 -27 -55 -42 -132 -66 -55 -16 -115 -41 -135 -55 -20
-13 -49 -24 -66 -24 -16 0 -71 -16 -122 -36 -93 -36 -153 -46 -194 -31 -21 7
-23 5 -23 -21 0 -31 -31 -83 -87 -146 -37 -40 -72 -109 -73 -138 0 -10 -4 -18
-9 -18 -14 0 -66 -53 -105 -107 -37 -52 -83 -97 -108 -105 -9 -3 -7 -12 7 -34
18 -27 19 -46 17 -299 -2 -252 -4 -272 -22 -297 -11 -15 -20 -29 -20 -31 0 -3
14 -10 31 -17 19 -8 53 -42 87 -89 63 -84 97 -118 129 -127 14 -4 23 -16 27
-39 4 -19 35 -75 69 -126 51 -75 62 -99 62 -133 l0 -41 60 0 c47 0 77 -8 135
-35 49 -22 96 -35 135 -38 48 -4 67 -10 93 -33 21 -18 68 -39 135 -60 56 -17
114 -40 129 -50 25 -18 30 -18 51 -5 12 9 71 34 131 56 111 41 172 72 178 92
2 6 30 12 63 12 47 2 80 11 153 45 69 32 106 43 142 43 l48 0 -1 47 c-1 40 7
58 51 127 29 43 58 96 64 117 6 20 15 37 19 37 17 0 74 58 127 129 31 42 70
89 88 105 l32 28 -19 33 c-15 24 -21 58 -24 133 -3 55 -10 113 -15 127 -6 15
-7 32 -3 38 4 6 6 65 5 131 -2 76 2 131 9 149 11 26 10 31 -6 40 -26 14 -61
52 -118 126 -26 34 -59 67 -72 73 -16 7 -25 19 -25 35 0 35 -33 91 -90 153
-28 30 -60 72 -70 92 -19 35 -21 36 -77 37 -35 0 -88 10 -133 26 -41 14 -94
27 -117 29 -23 2 -55 13 -71 24 -16 12 -75 34 -131 51 -111 32 -151 53 -158
82 -7 26 -13 24 -51 -16z"/>
</g>
</svg>
